<mxfile host="app.diagrams.net" modified="2023-11-23T01:14:03.163Z" agent="Mozilla/5.0 (Macintosh; Intel Mac OS X 10_15_7) AppleWebKit/605.1.15 (KHTML, like Gecko) Version/17.0 Safari/605.1.15" etag="vGoNBOjPtgBc-N1EAdsM" version="22.1.3" type="github">
  <diagram name="Página-1" id="MdCg0GDHvMsd0DE7V6tG">
    <mxGraphModel dx="804" dy="606" grid="1" gridSize="10" guides="1" tooltips="1" connect="1" arrows="1" fold="1" page="1" pageScale="1" pageWidth="827" pageHeight="1169" math="0" shadow="0">
      <root>
        <mxCell id="0" />
        <mxCell id="1" parent="0" />
        <mxCell id="zThOTNkUYDwe4VjumfKr-3" style="edgeStyle=orthogonalEdgeStyle;rounded=0;orthogonalLoop=1;jettySize=auto;html=1;exitX=1;exitY=0.5;exitDx=0;exitDy=0;exitPerimeter=0;" edge="1" parent="1" source="zThOTNkUYDwe4VjumfKr-1" target="zThOTNkUYDwe4VjumfKr-2">
          <mxGeometry relative="1" as="geometry" />
        </mxCell>
        <mxCell id="zThOTNkUYDwe4VjumfKr-1" value="Inicio" style="strokeWidth=2;html=1;shape=mxgraph.flowchart.start_1;whiteSpace=wrap;" vertex="1" parent="1">
          <mxGeometry x="80" y="110" width="100" height="60" as="geometry" />
        </mxCell>
        <mxCell id="zThOTNkUYDwe4VjumfKr-2" value="API Cadastrar Usuário (Fast Fail)" style="rounded=1;whiteSpace=wrap;html=1;absoluteArcSize=1;arcSize=14;strokeWidth=2;" vertex="1" parent="1">
          <mxGeometry x="280" y="90" width="100" height="100" as="geometry" />
        </mxCell>
        <mxCell id="zThOTNkUYDwe4VjumfKr-4" value="Topico&lt;br&gt;(Kafka)" style="strokeWidth=2;html=1;shape=mxgraph.flowchart.database;whiteSpace=wrap;" vertex="1" parent="1">
          <mxGeometry x="520" y="90" width="80" height="100" as="geometry" />
        </mxCell>
        <mxCell id="zThOTNkUYDwe4VjumfKr-5" style="edgeStyle=orthogonalEdgeStyle;rounded=0;orthogonalLoop=1;jettySize=auto;html=1;entryX=0;entryY=0.5;entryDx=0;entryDy=0;entryPerimeter=0;" edge="1" parent="1" source="zThOTNkUYDwe4VjumfKr-2" target="zThOTNkUYDwe4VjumfKr-4">
          <mxGeometry relative="1" as="geometry" />
        </mxCell>
        <mxCell id="zThOTNkUYDwe4VjumfKr-6" value="Producer Message" style="edgeLabel;html=1;align=center;verticalAlign=middle;resizable=0;points=[];" vertex="1" connectable="0" parent="zThOTNkUYDwe4VjumfKr-5">
          <mxGeometry x="0.1273" y="1" relative="1" as="geometry">
            <mxPoint x="-9" y="1" as="offset" />
          </mxGeometry>
        </mxCell>
        <mxCell id="zThOTNkUYDwe4VjumfKr-7" value="Petshop-API" style="rounded=1;whiteSpace=wrap;html=1;absoluteArcSize=1;arcSize=14;strokeWidth=2;" vertex="1" parent="1">
          <mxGeometry x="410" y="250" width="100" height="100" as="geometry" />
        </mxCell>
        <mxCell id="zThOTNkUYDwe4VjumfKr-8" style="edgeStyle=orthogonalEdgeStyle;rounded=0;orthogonalLoop=1;jettySize=auto;html=1;entryX=0.5;entryY=1;entryDx=0;entryDy=0;entryPerimeter=0;" edge="1" parent="1" source="zThOTNkUYDwe4VjumfKr-7" target="zThOTNkUYDwe4VjumfKr-4">
          <mxGeometry relative="1" as="geometry" />
        </mxCell>
        <mxCell id="zThOTNkUYDwe4VjumfKr-9" value="Consumer Message" style="edgeLabel;html=1;align=center;verticalAlign=middle;resizable=0;points=[];" vertex="1" connectable="0" parent="zThOTNkUYDwe4VjumfKr-8">
          <mxGeometry x="-0.375" y="-4" relative="1" as="geometry">
            <mxPoint x="-14" y="-70" as="offset" />
          </mxGeometry>
        </mxCell>
        <mxCell id="zThOTNkUYDwe4VjumfKr-10" value="Database (Postgres)" style="strokeWidth=2;html=1;shape=mxgraph.flowchart.database;whiteSpace=wrap;" vertex="1" parent="1">
          <mxGeometry x="230" y="250" width="80" height="100" as="geometry" />
        </mxCell>
        <mxCell id="zThOTNkUYDwe4VjumfKr-11" style="edgeStyle=orthogonalEdgeStyle;rounded=0;orthogonalLoop=1;jettySize=auto;html=1;entryX=1;entryY=0.5;entryDx=0;entryDy=0;entryPerimeter=0;" edge="1" parent="1" source="zThOTNkUYDwe4VjumfKr-7" target="zThOTNkUYDwe4VjumfKr-10">
          <mxGeometry relative="1" as="geometry" />
        </mxCell>
        <mxCell id="zThOTNkUYDwe4VjumfKr-12" value="Salva" style="edgeLabel;html=1;align=center;verticalAlign=middle;resizable=0;points=[];" vertex="1" connectable="0" parent="zThOTNkUYDwe4VjumfKr-11">
          <mxGeometry x="-0.1846" y="2" relative="1" as="geometry">
            <mxPoint as="offset" />
          </mxGeometry>
        </mxCell>
        <mxCell id="zThOTNkUYDwe4VjumfKr-13" value="Fim" style="strokeWidth=2;html=1;shape=mxgraph.flowchart.terminator;whiteSpace=wrap;" vertex="1" parent="1">
          <mxGeometry x="70" y="270" width="100" height="60" as="geometry" />
        </mxCell>
        <mxCell id="zThOTNkUYDwe4VjumfKr-14" style="edgeStyle=orthogonalEdgeStyle;rounded=0;orthogonalLoop=1;jettySize=auto;html=1;entryX=1;entryY=0.5;entryDx=0;entryDy=0;entryPerimeter=0;" edge="1" parent="1" source="zThOTNkUYDwe4VjumfKr-10" target="zThOTNkUYDwe4VjumfKr-13">
          <mxGeometry relative="1" as="geometry" />
        </mxCell>
      </root>
    </mxGraphModel>
  </diagram>
</mxfile>
